<?xml version="1.0" standalone="no"?>
<!DOCTYPE svg PUBLIC "-//W3C//DTD SVG 20010904//EN"
 "http://www.w3.org/TR/2001/REC-SVG-20010904/DTD/svg10.dtd">
<svg version="1.0" xmlns="http://www.w3.org/2000/svg"
 width="1080.000000pt" height="1080.000000pt" viewBox="0 0 1080.000000 1080.000000"
 preserveAspectRatio="xMidYMid meet">

<g transform="translate(0.000000,1080.000000) scale(0.100000,-0.100000)"
fill="#000000" stroke="none">
<path d="M1340 9736 c-198 -34 -339 -188 -362 -395 -5 -48 -8 -314 -6 -596 3
-452 6 -516 21 -560 64 -183 203 -339 349 -390 86 -29 279 -37 833 -33 491 4
545 6 595 23 30 10 62 23 70 29 32 23 61 36 80 36 16 0 20 -7 20 -34 0 -18 6
-39 14 -45 9 -8 83 -10 257 -6 134 2 294 5 355 5 l111 0 18 63 c9 34 21 71 26
82 4 11 24 70 44 130 21 61 42 116 47 123 8 9 88 12 361 10 l351 -3 19 -50
c11 -27 23 -57 27 -65 4 -9 11 -31 15 -50 4 -19 11 -41 15 -50 4 -8 16 -42 26
-75 9 -33 27 -70 38 -83 l21 -24 615 6 c338 3 627 5 643 6 l27 0 0 434 c0 239
3 441 6 450 11 30 45 6 314 -227 l183 -157 27 17 c30 20 67 49 203 163 50 41
104 86 121 99 17 13 52 42 78 63 83 68 77 94 80 -399 l3 -438 334 -3 c238 -2
338 1 347 9 12 10 14 171 14 970 0 937 0 959 -19 969 -25 13 -553 13 -601 0
-19 -5 -46 -20 -60 -33 -14 -12 -55 -45 -91 -72 -74 -56 -286 -225 -303 -240
-6 -6 -38 -31 -71 -56 -67 -51 -74 -51 -130 -1 -35 32 -64 57 -200 166 -33 27
-78 64 -100 82 -186 156 -172 148 -254 155 -42 4 -189 7 -327 8 -225 2 -252 0
-258 -14 -3 -9 -6 -329 -6 -711 0 -382 -3 -694 -7 -694 -13 0 -55 96 -73 165
-5 17 -29 89 -55 160 -25 72 -50 144 -55 160 -12 42 -60 186 -71 210 -5 11
-31 88 -58 170 -28 83 -75 222 -107 310 -31 88 -58 174 -61 191 -3 19 -14 36
-28 44 -17 9 -149 11 -546 8 -578 -4 -548 -1 -650 -70 -54 -37 -84 -89 -125
-218 -9 -30 -21 -64 -25 -75 -4 -11 -17 -54 -29 -95 -25 -87 -37 -123 -56
-167 -8 -17 -14 -36 -14 -42 0 -15 -48 -166 -66 -209 -8 -18 -14 -39 -14 -46
0 -8 -7 -27 -15 -42 -8 -16 -15 -36 -15 -44 0 -15 -23 -88 -39 -125 -5 -11
-17 -51 -28 -88 -11 -38 -23 -69 -29 -70 -5 -1 -11 113 -14 285 -3 157 -9 290
-13 295 -13 12 -1069 16 -1101 4 l-26 -11 0 -274 c0 -262 1 -276 19 -286 12
-6 100 -10 216 -10 170 0 196 -2 202 -16 3 -9 0 -20 -8 -25 -19 -12 -621 -11
-653 1 l-26 10 0 329 c0 253 3 332 13 338 6 4 318 10 692 13 l680 5 0 310 0
309 -35 7 c-60 13 -1627 8 -1700 -5z m1600 -262 c0 -136 -3 -175 -12 -172 -10
4 -14 46 -16 157 l-3 151 -792 -2 c-742 -3 -794 -4 -824 -21 -55 -31 -123
-105 -154 -167 l-29 -60 2 -560 c2 -308 0 -560 -4 -560 -8 0 -14 547 -10 944
2 187 5 233 17 246 8 9 15 24 15 33 0 9 5 17 10 17 6 0 10 5 10 10 0 14 92
100 106 100 6 0 17 6 23 14 6 8 28 17 49 21 20 5 386 11 812 14 426 4 781 7
788 9 9 1 12 -39 12 -174z m2938 146 c19 -16 47 -39 63 -52 16 -13 46 -38 67
-56 20 -18 50 -43 66 -55 30 -23 112 -93 182 -156 22 -20 60 -52 84 -71 24
-19 59 -50 77 -67 32 -32 53 -41 53 -25 0 4 17 18 38 32 20 13 47 35 59 47 12
13 25 23 29 23 6 0 76 53 100 75 6 5 25 21 43 35 18 14 46 37 62 53 17 15 32
27 35 27 6 0 75 52 100 75 29 26 62 52 97 75 20 14 37 28 37 33 0 4 7 7 15 7
8 0 15 5 15 10 0 7 75 9 218 8 l217 -3 2 -817 c2 -815 2 -818 -18 -818 -11 0
-18 4 -15 8 8 13 10 1591 3 1599 -4 3 -93 5 -199 4 -181 -2 -195 -4 -224 -24
-43 -29 -238 -179 -244 -187 -3 -3 -34 -28 -70 -55 -36 -27 -67 -52 -70 -55
-3 -3 -25 -21 -50 -40 -25 -19 -47 -37 -50 -40 -10 -10 -85 -65 -107 -77 -55
-31 -89 -11 -303 181 -19 17 -55 47 -80 67 -25 20 -74 64 -110 98 -36 33 -68
61 -72 61 -4 0 -24 15 -44 33 l-37 32 -214 3 c-151 2 -219 0 -228 -8 -12 -10
-14 -136 -13 -766 0 -415 -2 -757 -6 -761 -3 -3 -6 348 -6 780 l0 787 228 3
c125 1 229 3 232 5 3 1 20 -12 38 -28z m-1217 -18 c4 -19 12 -39 18 -45 6 -6
11 -20 11 -32 0 -12 4 -25 9 -31 5 -5 19 -43 31 -84 13 -41 27 -82 31 -90 4
-8 17 -44 28 -80 11 -36 41 -123 66 -195 25 -71 48 -139 51 -150 3 -11 10 -29
15 -40 4 -11 22 -63 39 -115 17 -52 37 -109 45 -127 8 -17 15 -40 15 -50 0
-10 4 -23 9 -28 4 -6 16 -35 26 -65 9 -30 28 -84 41 -120 13 -36 32 -92 43
-125 10 -33 23 -71 29 -85 33 -85 44 -132 33 -143 -18 -18 -31 3 -67 115 -19
57 -41 119 -48 138 -7 19 -19 53 -26 75 -7 22 -18 54 -24 70 -16 37 -64 180
-76 220 -8 29 -40 122 -135 390 -26 72 -49 139 -52 150 -2 11 -8 29 -13 40 -5
11 -16 45 -26 75 -9 30 -28 84 -42 120 -14 36 -34 99 -46 140 l-22 75 -459 0
c-413 0 -464 -2 -496 -17 -49 -24 -63 -43 -89 -123 -13 -38 -26 -74 -30 -80
-4 -5 -14 -39 -24 -75 -10 -36 -22 -73 -27 -82 -5 -10 -13 -34 -18 -55 -22
-85 -37 -135 -62 -198 -17 -45 -69 -221 -69 -236 0 -8 -7 -24 -15 -35 -8 -10
-15 -30 -15 -44 0 -14 -7 -34 -15 -44 -8 -11 -15 -33 -15 -48 0 -16 -4 -36 -9
-46 -13 -26 -32 -83 -41 -122 -9 -37 -25 -85 -47 -137 -7 -17 -13 -37 -13 -45
0 -7 -14 -51 -30 -98 -17 -46 -30 -92 -30 -102 0 -10 -7 -18 -15 -18 -8 0 -15
9 -15 20 0 11 4 20 10 20 5 0 12 17 15 38 4 20 10 46 15 57 5 11 11 31 13 45
5 28 22 77 43 128 8 18 14 43 14 57 0 13 6 36 14 52 24 49 59 156 64 198 2 22
11 44 18 48 8 4 14 23 14 42 0 19 5 37 10 40 6 3 10 16 10 28 0 12 7 35 15 51
8 15 15 36 15 45 0 10 7 26 15 37 8 10 15 31 15 46 0 14 6 39 14 55 8 15 20
48 26 73 24 88 42 145 56 173 8 16 14 39 14 52 0 12 7 36 15 51 8 16 15 39 15
52 0 12 5 22 10 22 6 0 10 12 11 28 1 44 41 115 74 131 17 8 33 18 36 23 11
17 202 25 594 24 l399 -1 7 -33z m-3131 -798 c0 -384 -3 -485 -12 -482 -10 4
-14 110 -16 479 -1 261 0 480 3 487 3 7 9 10 15 7 6 -4 10 -176 10 -491z
m2420 474 c0 -22 -21 -92 -40 -133 -5 -11 -11 -33 -13 -50 -4 -28 -18 -71 -38
-120 -17 -40 -39 -110 -39 -123 0 -8 -7 -29 -16 -47 -8 -18 -14 -46 -12 -62
l3 -28 340 2 340 1 3 36 c2 23 -2 42 -12 52 -9 8 -16 31 -16 49 0 19 -4 36 -9
39 -5 4 -12 24 -16 46 -4 22 -11 40 -16 40 -5 0 -9 13 -9 28 0 16 -7 37 -15
48 -8 10 -15 31 -15 45 0 15 -7 40 -15 55 -8 16 -15 37 -15 47 0 9 -4 17 -10
17 -5 0 -10 17 -10 38 l1 37 15 -40 c9 -22 18 -51 21 -65 3 -14 12 -34 19 -45
8 -11 14 -29 14 -42 0 -12 5 -25 10 -28 6 -3 10 -19 10 -34 0 -15 7 -36 15
-47 8 -10 15 -27 15 -37 0 -9 4 -25 9 -35 23 -42 41 -86 41 -101 0 -9 7 -35
15 -59 15 -42 15 -44 -7 -62 -22 -18 -45 -19 -375 -20 l-351 0 -7 40 c-7 39 6
99 40 190 7 19 18 55 25 80 7 25 18 61 25 80 33 92 37 107 45 140 17 78 50
123 50 68z m288 -180 c5 -7 14 -29 20 -48 5 -19 24 -73 41 -120 23 -63 27 -86
18 -92 -6 -4 -78 -8 -159 -8 -111 0 -148 3 -149 13 -3 28 3 55 26 117 13 36
26 78 30 95 4 16 11 36 17 42 14 17 142 17 156 1z m1596 -602 c1 -273 0 -499
-2 -501 -2 -2 -9 -2 -15 1 -9 3 -11 131 -9 492 2 457 4 523 18 509 3 -2 6
-228 8 -501z m1278 -134 c2 -199 0 -362 -4 -362 -5 0 -7 224 -6 498 1 273 4
436 5 362 2 -74 4 -298 5 -498z m-4232 550 c8 -4 -169 -9 -395 -12 l-410 -5
-5 -100 -5 -100 -7 103 c-4 56 -5 108 -2 115 3 9 96 11 407 9 221 -1 409 -5
417 -10z m60 -327 c0 -229 -4 -353 -11 -372 -39 -99 -73 -149 -116 -171 -38
-20 -45 -13 -16 16 37 36 86 110 97 147 6 17 11 186 13 378 3 298 6 347 18
347 13 0 15 -48 15 -345z m-430 -295 c-20 -20 -31 -20 -494 -20 -430 0 -474 2
-480 16 -10 25 1 29 37 16 22 -8 161 -12 460 -12 421 0 458 2 478 32 3 5 5 75
4 156 -2 81 0 152 4 157 3 6 7 -65 9 -157 2 -157 1 -169 -18 -188z m1144 65
c3 -9 -1 -32 -8 -53 -8 -20 -22 -64 -31 -97 -9 -33 -21 -73 -26 -90 -6 -16
-14 -41 -17 -55 -9 -41 -33 -73 -46 -60 -7 7 -7 16 2 30 6 11 12 28 12 37 0
22 27 108 46 146 8 16 14 38 14 50 0 27 30 107 40 107 4 0 11 -7 14 -15z
m-2517 -167 c-3 -7 -5 -2 -5 12 0 14 2 19 5 13 2 -7 2 -19 0 -25z m3553 -36
c0 -7 -4 -10 -10 -7 -5 3 -10 16 -10 28 0 18 2 19 10 7 5 -8 10 -21 10 -28z
m17 -69 c-3 -10 -5 -4 -5 12 0 17 2 24 5 18 2 -7 2 -21 0 -30z m687 -68 c3 -8
1 -15 -4 -15 -6 0 -10 7 -10 15 0 8 2 15 4 15 2 0 6 -7 10 -15z"/>
<path d="M7756 9743 c-3 -4 -6 -444 -6 -979 l0 -972 43 -5 c23 -2 474 -4 1002
-3 l960 1 7 65 c9 96 8 534 -2 551 -8 12 -100 14 -621 12 -441 -2 -616 0 -625
8 -17 14 -18 51 -2 67 9 9 137 12 514 12 276 0 509 3 518 6 14 5 16 38 16 264
0 196 -3 261 -12 267 -7 4 -246 8 -530 8 -376 0 -520 3 -528 11 -7 7 -9 21 -5
33 l6 21 631 0 c347 0 633 2 636 5 7 6 3 617 -4 624 -7 7 -1991 11 -1998 4z
m1869 -266 c0 -103 -4 -168 -10 -169 -6 -2 -11 48 -12 132 -2 74 -5 144 -7
155 -5 20 -12 20 -853 17 -466 -1 -851 -6 -855 -10 -4 -4 -8 -366 -9 -805 -1
-438 -6 -797 -10 -797 -5 0 -9 369 -9 819 l0 820 862 1 c474 0 864 3 867 5 3
3 12 4 21 3 13 -3 15 -27 15 -171z m-1306 -380 c-2 -98 1 -161 8 -168 7 -7
179 -10 501 -10 302 0 494 -4 497 -9 4 -6 -180 -10 -499 -10 -445 0 -506 2
-520 16 -13 13 -16 45 -16 193 0 98 3 181 7 185 17 17 24 -49 22 -197z m1115
-179 c8 -30 8 -233 0 -241 -3 -3 -12 -3 -19 -1 -10 4 -13 37 -14 125 -1 66 1
124 4 129 10 17 22 11 29 -12z m-1122 -250 c1 -2 4 -84 7 -183 l6 -180 60 -8
c33 -4 327 -7 653 -5 325 2 593 0 595 -4 1 -4 0 -72 -3 -150 -6 -182 -23 -185
-30 -6 l-5 133 -646 3 -647 2 -6 23 c-10 39 -7 377 4 377 6 0 11 -1 12 -2z"/>
<path d="M2259 7505 c-35 -12 -82 -30 -104 -39 -22 -10 -60 -24 -85 -33 -25
-8 -58 -21 -75 -28 -16 -7 -68 -27 -115 -45 -47 -17 -94 -35 -105 -40 -11 -5
-58 -23 -105 -41 -119 -45 -152 -59 -172 -69 -10 -6 -24 -10 -32 -10 -8 0 -43
-13 -78 -28 -34 -16 -87 -37 -115 -46 -59 -20 -68 -41 -25 -56 15 -6 36 -15
47 -20 11 -5 85 -34 165 -65 80 -31 159 -63 177 -71 17 -8 37 -14 45 -14 8 0
18 -4 23 -9 6 -5 38 -18 73 -30 34 -12 70 -25 80 -30 9 -5 37 -17 62 -26 25
-10 54 -21 65 -26 11 -5 56 -22 100 -39 44 -17 89 -35 100 -39 11 -5 43 -17
71 -27 l51 -17 124 48 c68 26 142 56 163 66 22 10 46 19 54 19 8 0 26 6 40 14
15 8 47 22 72 31 79 31 115 46 132 55 10 6 24 10 32 10 7 0 47 14 87 31 99 42
101 43 199 82 47 19 112 47 144 62 56 26 59 28 40 42 -10 7 -30 16 -44 19 -21
5 -122 43 -195 75 -11 5 -45 18 -75 29 -30 11 -64 24 -75 29 -11 5 -40 16 -65
26 -25 10 -54 21 -65 25 -11 5 -74 29 -140 55 -66 26 -147 57 -180 70 -33 13
-99 37 -146 53 l-86 30 -64 -23z"/>
<path d="M4333 7493 c-10 -4 -13 -198 -13 -924 l0 -919 716 0 c778 0 777 0
866 56 21 13 41 24 46 24 14 0 64 60 98 115 38 63 54 166 54 355 0 187 -25
298 -80 357 -26 29 -25 49 3 87 57 78 62 104 61 331 l-2 211 -33 69 c-55 112
-142 188 -261 226 -58 18 -95 19 -752 18 -380 0 -697 -3 -703 -6z m1452 -128
c68 -33 127 -92 160 -160 24 -51 25 -63 25 -218 0 -190 -9 -230 -69 -292 -66
-69 -67 -76 -15 -131 87 -95 104 -152 104 -356 0 -203 -18 -278 -81 -332 -79
-67 -88 -68 -816 -64 -356 1 -654 7 -660 11 -10 6 -13 174 -13 781 0 425 3
776 7 779 3 4 298 7 655 7 l649 0 54 -25z"/>
<path d="M4853 7064 c-10 -4 -13 -42 -13 -142 0 -75 3 -147 6 -159 l6 -23 332
0 332 0 31 30 c57 55 58 213 2 266 l-30 29 -327 2 c-180 1 -333 -1 -339 -3z
m625 -186 l-3 -23 -246 -3 c-219 -2 -247 -1 -253 14 -3 9 -4 20 0 25 3 5 116
9 255 9 l250 0 -3 -22z"/>
<path d="M4874 6430 c-27 -11 -31 -37 -24 -175 l5 -110 342 -3 342 -2 25 27
c24 26 26 35 26 119 0 88 -1 91 -31 120 l-30 29 -317 2 c-174 1 -327 -2 -338
-7z m604 -172 c3 -17 -14 -18 -246 -18 -137 0 -252 3 -255 7 -4 3 -2 12 4 20
10 11 59 13 253 11 220 -3 241 -5 244 -20z"/>
<path d="M6424 7481 c-50 -19 -124 -62 -155 -91 -30 -30 -79 -98 -79 -112 0
-8 -4 -18 -9 -23 -27 -30 -31 -122 -31 -667 0 -334 5 -581 10 -608 20 -90 110
-227 164 -251 12 -5 36 -18 53 -29 78 -47 119 -50 653 -50 544 0 553 1 643 57
40 25 43 23 49 -27 l3 -25 359 -3 c324 -2 361 -1 378 14 10 10 18 21 18 26 0
4 28 54 63 111 35 57 67 110 70 118 4 8 16 28 27 44 11 17 23 37 27 45 5 9 23
41 41 73 26 45 37 55 47 47 7 -6 43 -59 79 -118 37 -59 93 -147 126 -197 33
-49 64 -99 69 -110 29 -58 4 -55 420 -55 l382 0 -6 21 c-6 18 -275 424 -363
548 -15 21 -34 49 -42 61 -8 13 -33 48 -55 79 -92 128 -173 249 -179 267 -4
14 20 56 94 157 55 76 100 140 100 142 0 2 30 47 68 99 214 302 315 454 307
466 -7 11 -681 15 -709 4 -9 -3 -16 -9 -16 -13 0 -4 -37 -64 -82 -133 -46 -69
-103 -160 -128 -202 -26 -44 -51 -75 -59 -73 -8 1 -24 20 -36 42 -47 89 -92
165 -157 273 l-70 112 -367 0 c-202 0 -370 -3 -374 -6 -3 -4 11 -29 32 -58 21
-28 49 -69 63 -92 15 -22 32 -47 40 -55 7 -8 35 -48 63 -89 27 -41 54 -80 60
-87 5 -7 39 -55 75 -108 36 -53 101 -147 145 -209 93 -131 105 -150 105 -171
0 -9 -35 -65 -77 -125 -43 -61 -103 -146 -133 -191 -30 -44 -60 -86 -65 -92
-12 -14 -121 -174 -148 -218 -11 -16 -23 -27 -28 -23 -5 3 -9 250 -9 588 0
649 1 638 -68 744 -45 69 -104 117 -189 156 l-68 31 -540 2 c-501 2 -544 1
-591 -16z m1173 -121 c60 -34 127 -114 143 -168 8 -25 10 -223 8 -617 -3 -577
-3 -580 -25 -621 -28 -52 -103 -107 -165 -123 -68 -16 -1030 -15 -1111 1 -72
15 -143 73 -176 143 -21 44 -21 55 -21 624 0 476 3 585 14 612 23 54 92 126
149 153 l52 25 540 1 540 0 52 -30z m838 22 c11 -7 125 -188 125 -197 0 -3 12
-24 27 -48 39 -60 61 -98 79 -132 8 -16 23 -43 34 -60 11 -16 23 -36 26 -42 3
-7 15 -13 25 -13 19 0 29 15 244 345 28 44 62 97 74 118 l23 37 223 0 c123 0
226 -4 229 -9 6 -9 -36 -70 -231 -342 -68 -93 -123 -172 -123 -175 0 -3 -5
-10 -10 -17 -29 -34 -150 -201 -150 -208 0 -3 7 -13 16 -20 9 -8 28 -31 42
-53 13 -22 28 -44 33 -50 22 -26 151 -211 222 -316 42 -63 111 -164 153 -223
41 -60 79 -120 84 -133 l10 -24 -243 0 -243 0 -26 28 c-14 15 -38 47 -53 72
-15 25 -59 91 -96 148 -38 57 -69 105 -69 108 0 3 -21 35 -46 70 -61 86 -80
85 -143 -7 -54 -77 -62 -90 -94 -149 -26 -47 -119 -196 -150 -240 l-17 -25
-228 -5 c-125 -3 -232 -4 -239 -2 -21 6 -20 9 279 447 38 55 96 140 129 190
33 49 76 111 95 137 35 47 35 48 17 72 -10 14 -21 26 -25 26 -5 0 -8 5 -8 11
0 6 -13 28 -28 48 -16 20 -54 72 -84 116 -30 44 -94 138 -144 208 -49 70 -94
137 -100 148 -6 11 -21 31 -33 45 -11 13 -21 27 -21 30 0 3 -11 20 -25 38 -14
18 -25 38 -25 44 0 14 447 17 465 4z"/>
<path d="M6659 7029 l-34 -30 3 -397 c3 -379 4 -397 23 -429 l21 -33 325 0
326 0 24 26 c14 15 29 38 34 51 5 13 9 184 9 378 0 393 -3 414 -61 448 -27 15
-63 17 -333 17 l-302 0 -35 -31z m619 -451 l-3 -323 -251 -3 -252 -2 -6 22
c-8 30 -8 592 0 612 5 14 38 16 260 16 l254 0 -2 -322z"/>
<path d="M3465 6969 c-33 -11 -69 -24 -80 -29 -22 -11 -129 -51 -220 -81 -33
-12 -84 -32 -113 -45 -29 -13 -57 -24 -62 -24 -5 0 -24 -6 -42 -14 -18 -8 -69
-29 -113 -46 -44 -17 -89 -35 -100 -39 -11 -5 -40 -17 -65 -26 -25 -10 -61
-24 -80 -32 -19 -8 -44 -18 -55 -22 -11 -5 -33 -14 -50 -20 -16 -7 -56 -22
-90 -33 -33 -11 -64 -24 -70 -29 -12 -12 -51 -11 -73 1 -17 9 -50 23 -132 55
-25 9 -54 21 -65 26 -11 5 -56 22 -100 39 -44 17 -89 35 -100 40 -11 5 -72 30
-135 55 -63 26 -131 54 -150 62 -49 20 -64 26 -160 62 -47 18 -93 36 -102 42
-10 5 -23 9 -30 9 -7 0 -25 7 -40 14 -16 8 -48 18 -72 21 -44 7 -44 7 -123
-66 -43 -39 -79 -76 -81 -80 -2 -4 27 -21 65 -38 37 -17 79 -37 93 -44 l25
-13 3 -504 2 -505 28 -12 c15 -6 47 -19 72 -28 25 -10 59 -23 75 -31 17 -7 80
-32 140 -55 61 -23 133 -52 160 -64 28 -13 61 -26 75 -30 14 -4 30 -11 35 -15
6 -3 33 -14 60 -24 28 -10 64 -24 80 -31 64 -28 109 -46 324 -130 106 -42 123
-42 216 5 33 16 65 30 72 30 7 0 27 6 45 14 31 13 87 37 133 55 24 10 55 22
245 96 136 53 234 91 305 120 17 7 50 20 75 30 25 10 59 23 75 30 17 7 48 19
70 26 22 7 46 20 53 28 9 11 12 128 12 505 0 270 3 500 6 512 3 12 22 28 47
38 23 9 69 30 102 47 33 16 66 29 73 29 22 0 8 22 -25 40 -17 9 -44 25 -60 35
-27 18 -112 65 -116 65 -1 -1 -29 -10 -62 -21z"/>
<path d="M7040 5280 c-36 -5 -103 -13 -150 -19 -47 -6 -116 -18 -155 -25 -303
-62 -315 -65 -325 -71 -5 -3 -28 -10 -52 -15 -24 -5 -72 -16 -108 -25 -171
-42 -217 -48 -455 -52 -187 -4 -260 -1 -330 11 -49 8 -103 17 -120 20 -16 2
-57 9 -90 15 -33 7 -85 17 -115 22 -30 6 -73 15 -95 21 -22 5 -60 13 -85 18
-25 5 -81 16 -125 25 -242 49 -417 68 -625 69 -209 1 -342 -21 -559 -91 -112
-36 -227 -105 -298 -181 l-43 -45 -107 1 c-100 2 -234 -15 -388 -48 -116 -25
-362 -133 -479 -211 -32 -21 -60 -39 -63 -39 -9 0 -80 -55 -211 -165 -51 -42
-165 -164 -211 -225 -14 -19 -29 -38 -34 -41 -8 -6 -97 -140 -97 -146 0 -2
-13 -23 -28 -46 -25 -38 -73 -132 -93 -182 -4 -11 -17 -40 -27 -65 -38 -88
-80 -233 -100 -345 -24 -136 -28 -480 -7 -603 25 -148 58 -262 108 -372 59
-133 52 -119 121 -235 147 -246 383 -463 626 -576 92 -43 116 -52 245 -88 185
-52 588 -35 707 30 10 5 26 9 37 9 35 0 219 87 351 165 136 82 173 97 217 90
55 -8 198 -32 273 -46 36 -6 88 -15 115 -20 51 -8 145 -26 295 -54 47 -9 110
-20 140 -25 76 -12 213 -36 285 -49 33 -7 83 -16 110 -21 28 -5 75 -14 105
-20 30 -7 84 -16 120 -20 86 -11 177 -28 220 -39 19 -6 48 -13 63 -16 20 -4
38 -22 64 -63 20 -31 44 -66 54 -77 10 -11 41 -48 69 -82 136 -167 337 -331
523 -427 313 -161 630 -214 1002 -168 224 28 491 121 675 236 118 73 284 202
370 287 82 80 244 280 257 317 4 9 16 31 28 47 26 36 120 222 141 280 34 92
60 186 91 320 26 117 26 544 0 660 -24 105 -47 195 -57 220 -4 11 -15 43 -25
70 -26 78 -106 236 -152 302 -13 17 -23 34 -23 38 0 12 -117 160 -178 225 -33
35 -58 68 -56 72 3 5 38 8 78 8 149 0 373 62 453 125 106 84 141 123 176 200
11 22 24 51 30 64 7 14 12 74 12 145 0 112 -2 127 -29 191 -50 117 -103 187
-215 283 -145 125 -391 261 -561 311 -25 7 -56 18 -70 23 -25 11 -41 15 -165
43 -78 18 -247 47 -375 66 -101 14 -587 21 -680 9z m685 -331 c44 -5 103 -15
130 -21 28 -6 75 -14 105 -18 56 -8 128 -25 165 -39 11 -5 47 -16 80 -26 33
-10 74 -24 92 -31 17 -8 36 -14 43 -14 19 0 169 -80 248 -133 83 -56 173 -141
199 -189 45 -86 52 -133 27 -194 -59 -142 -305 -233 -599 -221 -138 6 -164 12
-292 72 -43 20 -87 40 -98 45 -70 30 -96 40 -145 55 -30 10 -71 23 -90 30 -78
29 -144 45 -181 45 -21 0 -40 4 -43 9 -3 4 -31 11 -63 15 -32 3 -78 11 -103
16 -104 23 -277 40 -402 40 -116 0 -144 -3 -213 -26 -44 -14 -91 -32 -104 -41
-28 -18 -133 -14 -276 11 -49 9 -124 20 -165 25 -111 14 -285 40 -301 46 -8 2
-50 9 -94 14 -108 13 -210 29 -265 41 -25 5 -94 17 -155 25 -60 9 -132 20
-160 26 -49 9 -118 20 -260 39 -38 6 -78 13 -89 16 -11 4 -45 10 -76 15 -74
10 -228 36 -316 52 -66 12 -76 17 -140 76 -71 65 -208 141 -255 141 -28 0
-115 38 -106 46 18 19 322 63 434 64 63 0 317 -26 343 -36 8 -3 47 -10 85 -15
39 -5 102 -16 140 -23 39 -8 120 -24 180 -36 61 -12 124 -26 141 -31 17 -5 62
-13 100 -19 38 -5 130 -18 204 -30 178 -26 423 -27 605 0 190 28 244 37 274
48 14 6 40 13 56 16 17 3 62 13 100 21 176 41 204 47 267 55 38 5 72 11 78 15
16 10 169 27 315 35 169 9 470 4 580 -11z m-4450 -130 c188 -19 250 -27 340
-43 50 -9 119 -21 155 -26 36 -6 78 -15 94 -20 16 -6 38 -10 49 -10 41 0 114
-45 181 -113 65 -66 73 -70 145 -88 42 -10 88 -19 103 -19 15 0 62 -7 105 -16
93 -18 148 -28 268 -48 50 -8 119 -20 155 -27 36 -6 97 -15 135 -19 68 -8 170
-25 345 -57 47 -8 117 -19 155 -23 115 -13 228 -31 260 -40 17 -5 71 -14 120
-20 50 -6 120 -15 156 -19 37 -5 72 -12 79 -16 7 -4 58 -12 114 -17 55 -5 130
-11 164 -15 61 -5 75 -2 135 28 79 41 179 52 357 39 165 -12 192 -16 440 -67
210 -43 426 -129 595 -237 124 -80 289 -229 400 -360 50 -59 95 -115 95 -119
0 -2 20 -35 45 -73 25 -37 45 -74 45 -81 0 -7 5 -13 10 -13 6 0 10 -7 10 -16
0 -9 6 -28 14 -42 7 -15 22 -45 31 -67 10 -22 22 -48 26 -57 5 -10 9 -28 9
-41 0 -13 7 -32 15 -43 8 -10 15 -30 15 -44 0 -14 7 -43 15 -65 8 -22 14 -60
15 -86 0 -25 5 -50 11 -56 17 -17 24 -315 9 -398 -7 -38 -15 -99 -19 -135 -4
-36 -12 -75 -19 -87 -7 -12 -12 -34 -12 -50 0 -15 -7 -37 -15 -47 -8 -11 -15
-30 -15 -43 0 -13 -4 -31 -9 -41 -18 -36 -71 -152 -71 -157 0 -16 -154 -245
-204 -302 -6 -7 -22 -26 -36 -44 -56 -70 -231 -229 -302 -274 -9 -5 -51 -34
-95 -62 -43 -29 -84 -53 -90 -53 -7 0 -13 -4 -13 -10 0 -5 -8 -10 -19 -10 -10
0 -24 -7 -31 -15 -7 -8 -18 -15 -25 -15 -8 0 -28 -8 -47 -17 -54 -27 -62 -30
-96 -37 -17 -4 -34 -12 -37 -17 -4 -5 -21 -9 -38 -9 -18 0 -41 -7 -51 -15 -11
-8 -36 -15 -56 -15 -20 0 -41 -5 -47 -11 -30 -30 -556 -30 -585 -1 -7 7 -26
12 -43 12 -17 0 -40 7 -51 15 -10 8 -31 15 -45 15 -15 0 -40 7 -55 15 -16 8
-37 15 -46 15 -10 0 -18 5 -18 10 0 6 -6 10 -14 10 -7 0 -33 9 -57 20 -46 22
-50 24 -139 80 -30 19 -60 37 -66 40 -55 24 -315 282 -366 362 -10 15 -29 40
-43 55 -14 15 -48 56 -76 91 -28 34 -59 62 -69 62 -9 0 -34 7 -53 15 -20 8
-52 15 -72 15 -20 0 -52 7 -72 15 -19 8 -64 15 -99 15 -34 0 -65 4 -68 9 -3 5
-42 12 -86 16 -44 4 -83 11 -86 16 -3 5 -31 9 -63 9 -32 0 -80 7 -107 15 -27
8 -72 15 -99 15 -28 0 -56 5 -61 10 -6 6 -41 13 -78 17 -36 3 -69 10 -72 14
-3 5 -29 9 -57 9 -29 1 -70 7 -92 15 -22 8 -51 15 -65 15 -14 0 -47 7 -74 15
-27 8 -69 15 -93 15 -24 0 -52 4 -62 9 -20 11 -118 28 -238 41 -46 5 -91 14
-102 20 -28 14 -83 12 -105 -5 -11 -8 -28 -15 -38 -15 -10 0 -76 -36 -148 -80
-71 -44 -160 -94 -197 -111 -37 -17 -76 -35 -85 -40 -10 -5 -26 -9 -36 -9 -10
0 -27 -7 -38 -15 -10 -8 -29 -15 -42 -15 -13 0 -33 -5 -45 -12 -74 -40 -499
-40 -574 0 -12 7 -32 12 -45 12 -13 0 -32 7 -42 15 -11 8 -27 15 -35 15 -26 0
-184 84 -258 136 -84 60 -293 267 -293 292 0 9 -67 104 -79 112 -25 16 -134
234 -162 325 -11 33 -23 69 -28 80 -50 115 -65 528 -25 699 51 221 153 476
231 582 13 17 23 34 23 39 0 7 26 42 119 160 124 155 316 321 481 413 180 101
329 157 485 184 188 31 199 32 340 17z"/>
<path d="M2980 4209 c-37 -20 -89 -99 -90 -135 0 -12 -7 -35 -15 -50 -8 -16
-15 -39 -15 -51 0 -12 -4 -25 -10 -28 -5 -3 -10 -17 -10 -29 0 -13 -9 -45 -21
-70 -15 -35 -25 -46 -36 -42 -9 4 -43 11 -77 16 -34 6 -99 17 -146 25 -154 28
-162 29 -197 10 -37 -20 -73 -71 -73 -103 0 -11 -4 -23 -9 -26 -5 -4 -12 -24
-16 -46 -4 -22 -11 -42 -16 -46 -5 -3 -9 -15 -9 -27 0 -12 -7 -35 -16 -52 -8
-17 -16 -58 -16 -95 -2 -101 33 -139 162 -173 51 -14 163 -34 220 -40 21 -2
25 -8 28 -40 2 -23 -3 -48 -12 -62 -9 -14 -16 -35 -16 -48 0 -12 -4 -27 -9
-32 -4 -6 -16 -34 -25 -64 -23 -70 -24 -160 -2 -192 20 -32 89 -71 141 -80 53
-9 149 -28 205 -40 47 -10 93 2 130 33 23 20 50 65 50 86 0 10 4 22 9 27 5 6
16 37 26 70 31 106 65 210 74 224 9 15 53 12 131 -7 207 -51 252 -53 307 -13
49 35 68 74 122 246 45 144 49 179 24 215 -37 55 -58 63 -246 95 -75 13 -142
27 -148 31 -13 8 -6 68 15 129 38 112 66 204 66 219 0 34 -39 91 -72 107 -34
17 -124 37 -218 49 -30 4 -71 13 -90 19 -46 15 -59 13 -100 -10z"/>
<path d="M7095 3545 c-64 -31 -125 -94 -164 -169 -28 -52 -31 -68 -31 -144 0
-77 3 -91 31 -141 48 -84 88 -118 183 -156 132 -52 332 33 394 168 36 78 42
98 42 145 0 95 -48 197 -117 249 -21 15 -39 31 -41 35 -2 4 -19 10 -38 14 -19
3 -37 10 -40 15 -3 5 -42 9 -87 9 -66 -1 -92 -6 -132 -25z m233 -75 c2 -5 9
-10 16 -10 33 0 81 -65 105 -141 14 -44 14 -119 1 -119 -5 0 -10 -9 -10 -21 0
-31 -57 -97 -116 -135 -47 -30 -61 -34 -124 -34 -89 0 -136 26 -189 105 -23
36 -26 49 -26 130 0 82 2 94 29 135 34 53 47 64 101 91 34 17 53 19 125 15 47
-3 86 -10 88 -16z"/>
<path d="M4320 3467 c-84 -41 -120 -140 -80 -220 31 -62 71 -81 230 -108 120
-20 195 -22 226 -6 72 38 103 107 84 190 -7 29 -17 58 -23 65 -17 21 -69 39
-153 52 -43 6 -99 15 -124 20 -101 18 -135 19 -160 7z"/>
<path d="M5092 3314 c-44 -30 -72 -89 -72 -149 0 -50 3 -58 38 -92 39 -40 116
-73 167 -73 17 0 52 -7 79 -15 73 -22 171 -20 211 5 73 45 97 156 50 230 -30
48 -75 69 -170 81 -38 4 -99 12 -135 18 -92 15 -142 13 -168 -5z"/>
<path d="M6301 3092 c-74 -29 -150 -99 -187 -172 -30 -58 -33 -74 -34 -149 0
-98 20 -151 80 -211 65 -65 112 -83 220 -83 79 0 102 4 138 22 114 58 184 165
190 292 4 69 1 81 -29 143 -35 72 -93 129 -157 155 -56 22 -169 24 -221 3z
m144 -56 c88 -23 130 -57 166 -133 26 -56 26 -150 -1 -206 -20 -45 -65 -100
-90 -111 -8 -3 -28 -15 -45 -25 -42 -27 -138 -28 -192 -1 -76 37 -143 145
-143 232 1 74 69 182 139 218 19 10 93 36 111 39 3 0 28 -5 55 -13z"/>
<path d="M7570 2872 c-19 -9 -36 -20 -38 -24 -2 -5 -9 -8 -16 -8 -23 0 -102
-88 -130 -146 -16 -32 -33 -67 -37 -76 -5 -10 -9 -47 -9 -83 0 -161 132 -295
292 -295 165 1 295 107 344 280 17 61 17 66 0 134 -25 97 -74 161 -155 204
-55 28 -71 32 -139 31 -51 0 -89 -6 -112 -17z m209 -86 c10 -9 21 -16 26 -16
9 0 34 -31 35 -43 0 -4 -10 -1 -22 6 -13 8 -45 20 -71 27 -39 11 -56 10 -90 0
-23 -8 -49 -20 -58 -27 -8 -7 -22 -13 -30 -13 -20 -1 -55 -33 -63 -58 -4 -12
-12 -22 -17 -22 -5 0 -9 -6 -9 -14 0 -7 -7 -19 -15 -26 -8 -7 -15 -29 -15 -49
0 -20 -5 -43 -10 -51 -16 -25 -12 123 5 163 29 70 90 123 160 139 51 11 154 2
174 -16z m-72 -452 c-3 -3 -12 -4 -19 -1 -8 3 -5 6 6 6 11 1 17 -2 13 -5z"/>
<path d="M4036 2739 c-20 -16 -26 -29 -26 -59 0 -32 5 -43 32 -61 17 -13 52
-26 77 -31 25 -4 78 -14 116 -23 225 -52 295 -40 295 51 0 34 -5 45 -27 60
-16 10 -48 21 -73 26 -25 4 -83 14 -130 23 -225 42 -228 42 -264 14z"/>
<path d="M4876 2565 c-42 -65 7 -135 95 -135 24 0 62 -7 84 -15 22 -8 56 -14
76 -15 19 0 39 -4 45 -9 5 -6 27 -13 50 -17 36 -5 45 -3 77 26 21 18 37 41 37
52 0 32 -33 78 -60 84 -14 3 -38 10 -54 15 -16 5 -44 9 -63 9 -18 0 -50 7 -70
15 -22 9 -67 15 -118 15 -77 0 -84 -2 -99 -25z"/>
<path d="M6770 2412 c-110 -41 -167 -90 -220 -189 -28 -51 -31 -67 -31 -139 0
-101 31 -175 99 -235 69 -60 120 -79 215 -79 65 0 90 5 131 25 132 64 206 181
206 322 0 109 -59 215 -144 261 -99 52 -177 63 -256 34z m187 -87 c8 -8 20
-15 26 -15 12 0 60 -63 85 -109 14 -28 16 -167 2 -176 -5 -3 -10 -14 -10 -23
0 -24 -87 -112 -111 -112 -11 0 -22 -7 -25 -15 -5 -12 -25 -15 -94 -15 -66 0
-91 4 -100 15 -7 8 -18 15 -25 15 -21 0 -92 87 -99 121 -12 62 -6 149 13 192
30 65 108 130 167 140 50 9 155 -3 171 -18z"/>
</g>
</svg>
